<svg version="1.1" id="Шар_1" xmlns="http://www.w3.org/2000/svg" xmlns:xlink="http://www.w3.org/1999/xlink" x="0px" y="0px" viewBox="0 0 123.8 123.8" enable-background="new 0 0 123.8 123.8" xml:space="preserve" style="fill: burlywood;color: beige;">
<g>
	<polygon points="55.8,99.3 64.8,99.3 64.8,54.9 55.8,51.9  " fill="#fff"/>
	<path d="M82.2,35.3c-0.1,6-2,9.1-6,9.1c-4.1,0-8.3-2.2-13.9-4.9c-7.6-3.6-11.2-4.6-15.9-4.6   c-7.7,0-13.7,6.4-13.3,17.4h6.7c0.1-7,2.6-10.1,6.6-10.1c4,0,8.2,2.1,13.4,4.7C67.5,50.4,71.5,52,76,52c6.9,0,13.3-3.7,12.8-16.7   H82.2z" fill="#fff"/>
	<path d="M61.9,0C27.8,0,0,27.8,0,61.9c0,34.1,27.8,61.9,61.9,61.9c34.1,0,61.9-27.8,61.9-61.9   C123.8,27.8,96.1,0,61.9,0z M61.9,119.8C30,119.8,4,93.9,4,61.9S30,4,61.9,4s57.9,26,57.9,57.9S93.8,119.8,61.9,119.8z" fill="#fff"/>
</g>
</svg>